<svg
  xmlns="http://www.w3.org/2000/svg"
  viewBox="0 0 24 24"
  width="16"
  height="16"
  fill="currentColor"
>
  <path d="M12 .297C5.373.297 0 5.67 0 12.297c0 5.303 3.438 9.8 8.205 11.387.6.113.82-.258.82-.577 0-.285-.01-1.04-.015-2.04-3.338.724-4.042-1.61-4.042-1.61-.546-1.387-1.333-1.757-1.333-1.757-1.09-.744.083-.729.083-.729 1.205.085 1.838 1.236 1.838 1.236 1.07 1.835 2.807 1.305 3.492.998.108-.776.417-1.305.76-1.605-2.665-.305-5.467-1.335-5.467-5.93 0-1.31.47-2.38 1.236-3.22-.123-.304-.536-1.527.117-3.176 0 0 1.01-.324 3.3 1.23a11.47 11.47 0 0 1 3.003-.404c1.02.005 2.045.137 3.003.404 2.29-1.554 3.297-1.23 3.297-1.23.653 1.649.24 2.872.118 3.176.77.84 1.235 1.91 1.235 3.22 0 4.61-2.807 5.625-5.478 5.92.43.37.812 1.102.812 2.22 0 1.606-.015 2.896-.015 3.286 0 .322.218.694.824.576C20.565 22.092 24 17.593 24 12.297c0-6.627-5.373-12-12-12z"/>
</svg>
